<svg width="32" height="32" viewBox="0 0 32 32" fill="none" xmlns="http://www.w3.org/2000/svg">
  <!-- Simple pixel Earth favicon for WPlace -->
  
  <!-- Earth base (ocean blue) -->
  <circle cx="16" cy="16" r="14" fill="#1e40af"/>
  
  <!-- Land masses (green pixels) -->
  <!-- North America -->
  <rect x="6" y="6" width="3" height="3" fill="#16a34a"/>
  <rect x="9" y="6" width="3" height="3" fill="#16a34a"/>
  <rect x="6" y="9" width="3" height="3" fill="#16a34a"/>
  <rect x="9" y="9" width="3" height="3" fill="#16a34a"/>
  <rect x="12" y="9" width="3" height="3" fill="#16a34a"/>
  
  <!-- Europe/Africa -->
  <rect x="15" y="6" width="3" height="3" fill="#16a34a"/>
  <rect x="18" y="6" width="3" height="3" fill="#16a34a"/>
  <rect x="15" y="9" width="3" height="3" fill="#16a34a"/>
  <rect x="18" y="9" width="3" height="3" fill="#16a34a"/>
  <rect x="21" y="9" width="3" height="3" fill="#16a34a"/>
  <rect x="18" y="12" width="3" height="3" fill="#16a34a"/>
  <rect x="21" y="12" width="3" height="3" fill="#16a34a"/>
  
  <!-- Asia -->
  <rect x="24" y="6" width="3" height="3" fill="#16a34a"/>
  <rect x="24" y="9" width="3" height="3" fill="#16a34a"/>
  
  <!-- South America -->
  <rect x="9" y="18" width="3" height="3" fill="#16a34a"/>
  <rect x="12" y="18" width="3" height="3" fill="#16a34a"/>
  <rect x="9" y="21" width="3" height="3" fill="#16a34a"/>
  <rect x="12" y="21" width="3" height="3" fill="#16a34a"/>
  <rect x="12" y="24" width="3" height="3" fill="#16a34a"/>
  
  <!-- Australia -->
  <rect x="21" y="21" width="3" height="3" fill="#16a34a"/>
  <rect x="24" y="21" width="3" height="3" fill="#16a34a"/>
  
  <!-- Small islands -->
  <rect x="15" y="15" width="3" height="3" fill="#16a34a"/>
  <rect x="6" y="15" width="3" height="3" fill="#16a34a"/>
  
  <!-- Highlight (top-left) -->
  <rect x="9" y="3" width="3" height="3" fill="#3b82f6" opacity="0.8"/>
  <rect x="6" y="6" width="3" height="3" fill="#3b82f6" opacity="0.4"/>
</svg>
