<svg width="128" height="128" viewBox="0 0 128 128" fill="none" xmlns="http://www.w3.org/2000/svg">
  <!-- High resolution pixel Earth icon for WPlace -->
  
  <!-- Earth base (ocean blue) -->
  <circle cx="64" cy="64" r="56" fill="#1e40af"/>
  
  <!-- Land masses (green pixels) -->
  <!-- North America -->
  <rect x="24" y="24" width="8" height="8" fill="#16a34a"/>
  <rect x="32" y="24" width="8" height="8" fill="#16a34a"/>
  <rect x="40" y="24" width="8" height="8" fill="#16a34a"/>
  <rect x="24" y="32" width="8" height="8" fill="#16a34a"/>
  <rect x="32" y="32" width="8" height="8" fill="#16a34a"/>
  <rect x="40" y="32" width="8" height="8" fill="#16a34a"/>
  <rect x="48" y="32" width="8" height="8" fill="#16a34a"/>
  <rect x="16" y="40" width="8" height="8" fill="#16a34a"/>
  <rect x="24" y="40" width="8" height="8" fill="#16a34a"/>
  <rect x="32" y="40" width="8" height="8" fill="#16a34a"/>
  <rect x="40" y="40" width="8" height="8" fill="#16a34a"/>
  
  <!-- Europe/Africa -->
  <rect x="64" y="24" width="8" height="8" fill="#16a34a"/>
  <rect x="72" y="24" width="8" height="8" fill="#16a34a"/>
  <rect x="80" y="24" width="8" height="8" fill="#16a34a"/>
  <rect x="64" y="32" width="8" height="8" fill="#16a34a"/>
  <rect x="72" y="32" width="8" height="8" fill="#16a34a"/>
  <rect x="80" y="32" width="8" height="8" fill="#16a34a"/>
  <rect x="88" y="32" width="8" height="8" fill="#16a34a"/>
  <rect x="64" y="40" width="8" height="8" fill="#16a34a"/>
  <rect x="72" y="40" width="8" height="8" fill="#16a34a"/>
  <rect x="80" y="40" width="8" height="8" fill="#16a34a"/>
  <rect x="88" y="40" width="8" height="8" fill="#16a34a"/>
  <rect x="72" y="48" width="8" height="8" fill="#16a34a"/>
  <rect x="80" y="48" width="8" height="8" fill="#16a34a"/>
  <rect x="88" y="48" width="8" height="8" fill="#16a34a"/>
  <rect x="96" y="48" width="8" height="8" fill="#16a34a"/>
  
  <!-- Asia -->
  <rect x="96" y="24" width="8" height="8" fill="#16a34a"/>
  <rect x="104" y="24" width="8" height="8" fill="#16a34a"/>
  <rect x="96" y="32" width="8" height="8" fill="#16a34a"/>
  <rect x="104" y="32" width="8" height="8" fill="#16a34a"/>
  <rect x="104" y="40" width="8" height="8" fill="#16a34a"/>
  
  <!-- South America -->
  <rect x="32" y="56" width="8" height="8" fill="#16a34a"/>
  <rect x="40" y="56" width="8" height="8" fill="#16a34a"/>
  <rect x="48" y="56" width="8" height="8" fill="#16a34a"/>
  <rect x="32" y="64" width="8" height="8" fill="#16a34a"/>
  <rect x="40" y="64" width="8" height="8" fill="#16a34a"/>
  <rect x="48" y="64" width="8" height="8" fill="#16a34a"/>
  <rect x="32" y="72" width="8" height="8" fill="#16a34a"/>
  <rect x="40" y="72" width="8" height="8" fill="#16a34a"/>
  <rect x="48" y="72" width="8" height="8" fill="#16a34a"/>
  <rect x="40" y="80" width="8" height="8" fill="#16a34a"/>
  <rect x="48" y="80" width="8" height="8" fill="#16a34a"/>
  <rect x="48" y="88" width="8" height="8" fill="#16a34a"/>
  
  <!-- Australia -->
  <rect x="88" y="72" width="8" height="8" fill="#16a34a"/>
  <rect x="96" y="72" width="8" height="8" fill="#16a34a"/>
  <rect x="88" y="80" width="8" height="8" fill="#16a34a"/>
  <rect x="96" y="80" width="8" height="8" fill="#16a34a"/>
  
  <!-- Small islands -->
  <rect x="56" y="64" width="8" height="8" fill="#16a34a"/>
  <rect x="80" y="64" width="8" height="8" fill="#16a34a"/>
  <rect x="16" y="56" width="8" height="8" fill="#16a34a"/>
  <rect x="112" y="56" width="8" height="8" fill="#16a34a"/>
  
  <!-- Clouds (white pixels for atmosphere) -->
  <rect x="16" y="16" width="8" height="8" fill="#ffffff" opacity="0.4"/>
  <rect x="48" y="16" width="8" height="8" fill="#ffffff" opacity="0.4"/>
  <rect x="88" y="16" width="8" height="8" fill="#ffffff" opacity="0.4"/>
  <rect x="112" y="40" width="8" height="8" fill="#ffffff" opacity="0.4"/>
  <rect x="8" y="64" width="8" height="8" fill="#ffffff" opacity="0.4"/>
  <rect x="64" y="96" width="8" height="8" fill="#ffffff" opacity="0.4"/>
  <rect x="104" y="88" width="8" height="8" fill="#ffffff" opacity="0.4"/>
  
  <!-- Highlight (top-left) -->
  <rect x="24" y="16" width="8" height="8" fill="#3b82f6" opacity="0.6"/>
  <rect x="32" y="16" width="8" height="8" fill="#3b82f6" opacity="0.4"/>
  <rect x="16" y="24" width="8" height="8" fill="#3b82f6" opacity="0.4"/>
  
  <!-- Pixel grid effect -->
  <defs>
    <pattern id="pixelGrid" patternUnits="userSpaceOnUse" width="8" height="8">
      <rect width="8" height="8" fill="none" stroke="#000000" stroke-width="0.5" opacity="0.1"/>
    </pattern>
  </defs>
  <circle cx="64" cy="64" r="56" fill="url(#pixelGrid)"/>
</svg>
